<svg id="Layer_1" data-name="Layer 1" xmlns="http://www.w3.org/2000/svg" xmlns:xlink="http://www.w3.org/1999/xlink" viewBox="0 0 300 265.46"><defs><style>.cls-1{fill:none;}.cls-2{clip-path:url(#clip-path);}.cls-3{fill:#231f20;}</style><clipPath id="clip-path" transform="translate(-2.5 -17.27)"><rect class="cls-1" width="305" height="300"/></clipPath></defs><title>tiger group logo</title><g class="cls-2"><path class="cls-3" d="M197.7,282.73l-2.9-.92c-5.08-1.62-9.33-5-13.16-8.4-12.33-10.94-23.34-24.22-34.65-41.79-3.43-5.33-6.37-11-9.21-16.55-.79-1.52-1.57-3-2.37-4.56a23.11,23.11,0,0,1-1.6-4.33,18,18,0,0,0-7.27,5.51c-3.07,3.87-6.27,8.28-9.76,13.49-5.75,8.58-13.09,12.62-22.43,12.41-4.69-.11-8.91-1.92-12.9-5.52a28.54,28.54,0,0,0-2.33-1.81c-.59-.42-1.2-.86-1.8-1.33a4.09,4.09,0,0,1-1.64-3.06c0-.83-.33-1.2-1.73-2.27-.45-.35-1-.75-1.46-1.21-4.49-4.26-7.27-8.54-8.74-13.48l-1.36-4.53L66.85,206c1.34.48,2.64,1,3.92,1.44,2.82,1,5.49,2,8.2,2.8a5.51,5.51,0,0,0,4.38-.5A6.24,6.24,0,0,0,86.16,206c-1.74-3.64-1.59-7.41-1.45-10.76.05-1.33.1-2.59.05-3.82,0-.51,0-1,0-1.52s0-.87,0-1.3c-.24-5.38-3-8.26-8.29-8.56-2.81-.16-5.7-.24-8.49-.31s-5.38-.15-8.09-.3a15,15,0,0,1-1.64-.19l5.8,12L58.37,189a32.85,32.85,0,0,1-7.66-4.13l-6.83-2.47c-.56-.2-1.05-.35-1.47-.49a11.49,11.49,0,0,1-2.49-1c-7.57-4.45-12.48-10.62-14.58-18.34-.05-.18-.09-.32-.13-.43-4.42-1.84-6.53-5.78-7.87-9.05-1.66-4-3.66-6.31-6.69-7.56a11.44,11.44,0,0,1-3.13-2.17l-.25-.22C2,138.56,1,132.29,4.69,127.16A138.76,138.76,0,0,1,19,110.05,150.78,150.78,0,0,1,30.59,99.81c1.76-1.44,3.58-2.94,5.33-4.44l.4-.33a5.37,5.37,0,0,0,1-.93C47.14,75.56,63.16,63.1,76,54.32a173.41,173.41,0,0,1,15.37-9c2.38-1.29,4.84-2.62,7.21-4a3.82,3.82,0,0,0,.91-.7c9-10.11,20.71-17.48,35.86-22.51a13.88,13.88,0,0,1,2.3-.5c3.44-.54,7-.76,9.74,1.35,1.72,1.32,2.84,3.34,3.44,6.24l1.27-.16c2.57-.3,5.23-.62,7.89-.83a219.22,219.22,0,0,1,45,1.13,196.92,196.92,0,0,1,37.15,8.24c19.51,6.53,35.08,15.29,47.6,26.78,10,9.14,14.14,21,12.41,35.23-2.12,17.51-10.54,32.49-18.26,45.16-9.75,16-21.3,31-32.47,45.55-2.93,3.81-6,7.75-8.91,11.65-11.44,15.11-21.56,29-30.95,42.45-6.82,9.77-10.83,18.35-12.6,27a51.7,51.7,0,0,0-.78,8.17c-.06,1.34-.12,2.73-.22,4.11ZM137,200.15l.72,2.18c.26.78.47,1.52.68,2.25a20.2,20.2,0,0,0,1.31,3.7c.8,1.52,1.59,3.06,2.39,4.59,2.79,5.42,5.68,11,9,16.15,11.07,17.19,21.8,30.15,33.8,40.8a41.54,41.54,0,0,0,8.49,6.19l0-.63a56.71,56.71,0,0,1,.87-8.93c1.91-9.3,6.16-18.44,13.37-28.77,9.43-13.5,19.59-27.43,31.06-42.6,3-3.91,6-7.86,8.93-11.68,11.09-14.42,22.56-29.34,32.18-45.12C287.22,126,295.35,111.6,297.35,95c1.53-12.61-2.13-23.08-10.89-31.11-12-11-27-19.46-45.87-25.76a191.46,191.46,0,0,0-36.25-8,213.86,213.86,0,0,0-44-1.1c-2.56.2-5.17.51-7.69.81l-3.6.42-2.4.27-.25-2.41c-.28-2.75-.94-4.54-2-5.33s-2.85-.91-6.06-.41a9.09,9.09,0,0,0-1.53.32c-14.34,4.76-25.39,11.67-33.79,21.14A8.6,8.6,0,0,1,101,45.52c-2.41,1.38-4.89,2.72-7.29,4a170.18,170.18,0,0,0-15,8.75c-12.4,8.47-27.84,20.45-37.21,38.08a7.86,7.86,0,0,1-2.14,2.36l-.33.29c-1.79,1.53-3.63,3-5.41,4.5a149.8,149.8,0,0,0-11.27,9.91A134.38,134.38,0,0,0,8.59,130c-2.2,3.06-1.51,6.64,1.84,9.57l.26.23a7.75,7.75,0,0,0,1.81,1.34c5.45,2.26,7.82,6.63,9.28,10.18,1.15,2.79,2.63,5.52,5.69,6.6,1.73.61,2.27,2.59,2.5,3.44a24,24,0,0,0,7.64,12.09,14,14,0,0,1-.83-5.21l.2-7.68L41.19,167c3.93,6,7.79,10.9,12.68,14.31l-4.33-8.92,4.82,1c1,.21,1.78.42,2.52.6a18.46,18.46,0,0,0,3.23.63c2.64.14,5.35.21,8,.28,2.83.08,5.75.16,8.64.33,7.67.44,12.46,5.35,12.8,13.14,0,.5,0,1,0,1.51s0,.87,0,1.31c.07,1.43,0,2.85,0,4.23-.13,3.19-.25,6.21,1.18,8.88a3.42,3.42,0,0,1,.22,2.49,11.07,11.07,0,0,1-5.15,7.07,10.35,10.35,0,0,1-8.12,1c-2.43-.7-4.76-1.53-7.17-2.42a29.86,29.86,0,0,0,5.33,6.52c.31.29.68.58,1.08.89,1.36,1,3.36,2.58,3.58,5.49.47.36,1,.71,1.47,1.08a29.13,29.13,0,0,1,2.74,2.14c3.14,2.84,6.26,4.2,9.8,4.28,7.66.19,13.49-3.08,18.32-10.28,3.57-5.32,6.84-9.84,10-13.81a23,23,0,0,1,12-7.92Z" transform="translate(-2.5 -17.27)"/><path class="cls-3" d="M206.47,28C197.26,42.9,190.24,57.81,186,74.85c-13.4-2.48-26.49-4.38-40.13-4.71-.62,33,9.83,61.68,16.27,93.4s8.13,63.53,8.65,95.68a231.24,231.24,0,0,1-30.67-44.88c-3.68-23.49-7.9-47.23-15.85-69.74-7.79-22.09-20.69-42-30-63.46C81.3,87.22,73.14,96.38,65.76,108.42,58.87,101,51.94,93.56,45.1,86.06A138.53,138.53,0,0,1,83.55,52.42c6.58-3.9,13.35-7,19.26-11.79,5.68-4.59,10.46-9.42,16.93-13.09,4.66-2.64,11.39-6.67,16.92-7.27a10.36,10.36,0,0,1,9.94,1.23q.17,8.76,8.37,5.65c17.16,1.06,34.11-1.24,51.5.85" transform="translate(-2.5 -17.27)"/><path class="cls-3" d="M293.67,114.48c-15.9-2.12-31.8-3.35-47.82-4C247,104.57,248,98.62,249,92.66c1-7,2.54-15,1-21.76-.63-2.81-2.83-4.54-6.23-5-2.94-.39-5.24.59-6.41,2.86-2.89,5.6-3.29,13.15-4.26,19.63-4.78,31.76-6.17,64-11.92,95.53-1.07,5.52-2.38,11.22-2.73,16.67-.15,2.32.61,3.05,2.17,2,1.71-1.12,3.35-3.36,4.91-6.64A130,130,0,0,0,232,178.48c2.2-7.16,4.22-14.39,6-21.68-2.93.51-4.4.77-7.34,1.32,1.53-9.76,2.56-19.57,3.89-29.36,17.39-.54,34.67-.44,52,.68A281.94,281.94,0,0,1,266.88,162a288.82,288.82,0,0,1-21,26.82,128.12,128.12,0,0,0-14,17.9,117.74,117.74,0,0,0-6.46,11.51l-4.61,5.48c-2.51,3-3.68,4.56-4.32,5.19-2,1.93-3.84,4.47-7.56,9.57-1.56,2.14-3.15,4.41-4.94,4.21a2.13,2.13,0,0,1-1-.43c-1.65-1.25-3-4.55-4.15-9.91-1.39-6.37-2.32-12.88-3.07-19.31-1.34-11.5-2.48-23.24-4-34.83-3.51-22.71-9.83-44.45-10.55-67.56.31-16.18,2.41-32.81,9.8-47.41,5-9.88,14.61-18.15,23.85-23.13,12-6.44,23.8-4,28-3.32,11.63,1.76,19,6.85,31.65,15.65,14.31,9.92,21.46,14.88,23.94,22.78,0,0,3.66,11.67-2.21,32.18-.5,1.76-1.09,3.48-2.43,7.12" transform="translate(-2.5 -17.27)"/></g></svg>